<?xml version="1.0"?><svg width="200" height="500" xmlns="http://www.w3.org/2000/svg">

 <metadata id="metadata13697">image/svg+xml</metadata>
 <g>
  <title>Layer 1</title>
  <g id="layer1">
   <g transform="matrix(0.4881965,0,0,0.4881965,-186.34577,31.182391)" id="g2106">
    <g id="g15946">
     <path fill="#000000" fill-opacity="0.9375" fill-rule="evenodd" stroke="#000000" stroke-width="1px" d="m543.154663,26.113211l-2.611328,237.630167l-32.641479,15.667908l-18.279266,10.445282l-23.501862,37.864166l-9.139618,524.875397l63.977325,23.501892l69.200012,1.305664l124.03772,-16.973572l-3.916992,-501.373535l-22.196228,-62.671692l-37.864136,-24.807556l-23.501892,-10.445282l1.305664,-238.935829l-84.86792,-5.222641l0,9.139631z" id="path3793"/>
     <path fill="#000000" fill-rule="evenodd" stroke-width="1px" d="m543.154663,22.19622l3.916992,237.630165l-54.837738,24.807556l-14.362244,26.11322l-14.362274,39.1698l-7.833954,498.762238l23.501862,13.05658l2.611328,-118.815063l10.445282,-356.445282c0,0 -3.590546,-44.392456 28.724518,-58.7547c32.315125,-14.362274 75.629822,-0.685333 100.535828,1.305664c29.678955,2.372498 44.392456,-5.222656 32.641541,-24.807556c-11.419861,-19.033081 -69.526428,11.42453 -87.479248,-9.139618c-17.95282,-20.564148 10.771729,-39.496231 5.222656,-77.033951c-5.549072,-37.537735 -11.750977,-79.645279 -11.750977,-79.645279c0,0 1.21521,-62.738342 0,-86.173584c-1.142395,-22.03302 50.920776,-16.973579 50.920776,-16.973579l0,-10.44529l-67.894348,-2.61132z" id="path6069"/>
     <path fill="#000000" fill-opacity="0.333333" fill-rule="evenodd" stroke-width="1px" d="m459.592407,366.890533c137.09436,57.096863 250.686768,6.717285 250.686768,6.717285l1.305664,475.247467l-79.645264,28.548401l-147.539612,-11.755249l-28.724518,-25.009399l3.916962,-473.748505z" id="path6829"/>
     <path fill="#000000" fill-rule="evenodd" stroke="#000000" stroke-width="1.064667px" d="m518.359863,414.387115c103.112732,17.275879 201.046204,-4.354004 201.046204,-4.354004l0,378.799835c0,0 -42.753906,21.775574 -100.005493,23.226929c-57.251587,1.451355 -101.04071,-15.970215 -101.04071,-15.970215l0,-381.702545z" id="path3765"/>
     <g id="g3759" transform="matrix(1.070771,0,0,1.035497,-63.87859,-11.17824)">
      <path fill="#000000" fill-rule="nonzero" stroke-width="1px" d="m577.282104,20.648331c-0.289429,17.9361 -2.247314,29.245579 -1.903748,47.241142c0.701111,36.993858 -2.406372,72.990395 0.115967,109.846062c2.578125,23.46666 -0.463501,47.769562 -0.131165,71.642517c2.583313,22.093262 -13.656006,30.098328 -25.130005,29.868713c-15.761414,-3.078125 -39.853241,27.242767 -45.380524,45.803345c-8.304443,31.705048 -8.439087,66.011871 -8.625793,99.854065c-0.126129,44.03717 0.042725,88.07489 0.071014,132.112244c-0.051697,36.025085 0.051575,72.051331 0.28125,108.074646c-0.854004,15.351379 1.683105,31.497559 -0.501617,46.591064c-0.982666,6.863892 -0.760406,13.995972 -0.740112,20.999939c-0.142944,12.678589 -0.228394,25.354126 -0.06131,38.033142c0.08667,7.385681 0.054749,14.772583 0.071228,22.159058c-0.000702,6.918945 -0.016022,13.838013 -0.004181,20.757019c-0.001984,3.958069 -0.005676,7.915894 0.003632,11.874084l-16.955444,14.089478c0.009277,-3.960205 0.005615,-7.920044 0.003601,-11.880127c0.01181,-6.916748 -0.003418,-13.833435 -0.00415,-20.750122c0.016479,-7.425903 -0.015106,-14.852295 0.071289,-22.277466c0.163147,-12.639954 0.092407,-25.2771 -0.071289,-37.916199c0.003723,-7.238647 -0.211975,-14.560303 0.543182,-21.718872c2.768066,-14.869812 0.619934,-31.148499 1.427368,-46.484497c0.228241,-36.17926 0.333679,-72.361389 0.281769,-108.542419c0.026703,-44.05603 0.146667,-88.112427 -0.015106,-132.168213c-0.065399,-34.064087 -0.189423,-68.261078 7.649078,-100.488281c5.180603,-18.853363 12.568604,-34.588501 23.458801,-45.472565c17.767273,-16.955322 32.485535,-31.088318 53.514221,-30.479004c22.872375,-1.681427 -13.523499,30.760803 -6.691772,1.929962c0.203918,-24.018799 4.896301,-47.739822 4.568237,-71.321564c-2.652649,-36.912979 4.056824,-73.31604 3.08429,-110.369156c-0.514282,-17.770695 -1.825562,-44.248806 -17.478882,-53.472277l28.550171,-7.535719z" id="path3730"/>
      <path fill="#000000" fill-rule="nonzero" stroke-width="1px" id="path3734" d="m637.655579,23.259649c0.289429,17.93611 2.247314,29.245581 1.903748,47.241144c-0.701172,36.993858 2.406372,72.990402 -0.115967,109.846054c-2.578125,23.46666 0.46344,47.769562 0.131104,71.642517c-2.583313,22.093277 13.656006,30.098343 25.130066,29.868729c15.761414,-3.078156 47.707397,26.031647 21.179565,1.640411c10.931091,10.629486 18.673645,25.602325 24.200928,44.162933c8.304443,31.705017 8.439087,66.011841 8.625793,99.854065c0.12616,44.03717 -0.042725,88.07489 -0.071045,132.112244c0.051697,36.025085 -0.051575,72.051331 -0.281189,108.074646c0.853943,15.351379 -1.683167,31.497559 0.501587,46.591064c0.982666,6.863892 0.760437,13.995972 0.740112,20.999939c0.142944,12.678589 0.228394,25.354126 0.061279,38.033142c-0.086609,7.385681 -0.054749,14.772583 -0.071167,22.159058c0.000671,6.918945 0.015991,13.838013 0.00415,20.757019c0.001953,3.958069 0.005676,7.915894 -0.003601,11.874084l16.955444,14.089478c-0.009277,-3.960205 -0.005676,-7.920044 -0.003662,-11.880127c-0.01178,-6.916748 0.003479,-13.833496 0.004211,-20.750122c-0.016541,-7.425903 0.015076,-14.852295 -0.07135,-22.277466c-0.163086,-12.640015 -0.092346,-25.2771 0.071289,-37.916199c-0.003723,-7.238708 0.211975,-14.560303 -0.543152,-21.718872c-2.768066,-14.869812 -0.619934,-31.148499 -1.427368,-46.484497c-0.228271,-36.179321 -0.333679,-72.361389 -0.281799,-108.542419c-0.026672,-44.056091 -0.146606,-88.112427 0.015137,-132.168213c0.06543,-34.064087 0.189392,-68.261078 -7.649109,-100.488281c-5.180542,-18.853363 -12.568604,-34.588531 -23.45874,-45.472565c-17.767273,-16.955322 -32.485596,-31.088318 -53.514282,-30.479034c-22.872375,-1.681396 13.523499,30.760834 6.691833,1.929993c-0.203918,-24.018814 -4.896362,-47.739822 -4.568298,-71.321579c2.65271,-36.912964 -4.056824,-73.316032 -3.08429,-110.369148c0.514282,-17.770699 1.825562,-44.248806 17.478882,-53.472277l-28.55011,-7.535721z"/>
      <path fill="#000000" fill-rule="nonzero" stroke-width="1px" d="m736.242737,840.87854c-1.592773,9.820251 -3.519958,9.359009 -24.131042,14.748596c-20.611145,5.389587 -68.506409,10.099548 -89.301331,10.946594c-23.176453,0.196228 -46.353455,-0.096069 -69.530334,0.068481c-17.465454,-1.1297 -32.745605,-3.906067 -46.19455,-7.772705c-13.448975,-3.866699 -27.046417,-17.861816 -28.801666,-19.344055l12.086456,-20.287842c1.697571,1.439453 8.136627,8.859192 9.88147,10.242615c7.310913,6.466919 15.516327,12.947205 28.766571,16.495422c13.250244,3.548279 43.781189,6.253113 61.091736,6.444336c23.213623,0.182251 35.724121,0.047302 58.70166,-3.517517c73.097656,-12.958923 65.272278,-10.950989 74.533875,-27.935303l12.897156,19.911377z" id="path3738"/>
      <path fill="#000000" fill-rule="nonzero" stroke-width="1px" d="m642.565979,53.901691c-7.195313,-14.863422 -23.258484,-17.304573 -39.425903,-15.46022c-9.570557,1.24255 -26.799561,-5.031273 -36.432678,-4.874413l10.116272,-12.837029c9.359924,0.04936 16.117188,5.84034 25.428772,4.79203c16.622681,-1.71611 18.816284,-2.27071 35.540955,-2.189001l4.772583,30.568632z" id="path3744"/>
     </g>
     <path fill="#000000" fill-opacity="0.166667" fill-rule="evenodd" stroke-width="1px" d="m689.388611,306.83017c0,0 7.65863,493.494354 -7.833923,520.958466c-14.362305,25.460388 -25.786804,1.958496 -63.977356,10.445251c-38.190613,8.486816 -117.50946,33.947144 -117.50946,33.947144l91.39624,10.445313l122.732056,-24.807556l-1.305664,-515.735809l-23.501892,-35.252808z" id="path9863"/>
    </g>
    <path fill="#000000" fill-opacity="0.204167" fill-rule="evenodd" stroke-width="1px" id="path15974" d="m608.894531,20.43051c0,0 2.759949,184.484591 3.460144,248.535524c0.195984,17.295135 46.469177,13.409729 46.469177,13.409729l-19.050293,-10.798431l-13.056641,-31.335846l0,-212.822615l-17.822388,-6.988361z"/>
   </g>
  </g>
 </g>
</svg>